<svg width="64" height="64" version="1.1" viewBox="0 0 16.9 16.9" xmlns="http://www.w3.org/2000/svg">
 <g>
  <rect width="16.9" height="16.9" ry="1.77" fill="#ececec"/>
  <path transform="scale(.265)" d="m1.71 8.34v19h2.36v-17l9.02 17h3.13v-19h-2.36v15.5l-8.23-15.5h-3.92zm57.7 0 .359 13.8h2.17l.332-13.8h-2.86zm-32.4 4.36c-2.08 0-3.76.686-5.03 2.06-1.27 1.37-1.9 3.22-1.9 5.56 0 2.36.664 4.18 1.99 5.47 1.33 1.28 3.18 1.92 5.54 1.92.928 0 1.82-.114 2.66-.344.843-.23 1.67-.517 2.48-.857v-2.62h-.129c-.417.375-1.12.757-2.11 1.15-.979.383-1.95.576-2.93.576-.732 0-1.4-.102-2.02-.307-.605-.204-1.13-.511-1.57-.92-.46-.417-.82-.95-1.08-1.6-.264-.656-.396-1.42-.396-2.3h10.5v-1.3c0-2.07-.523-3.67-1.57-4.79-1.04-1.12-2.52-1.69-4.45-1.69zm8.39.396 3.76 14.3h2.21l3.64-11 3.67 11h2.22l3.72-14.3h-2.41l-2.48 11-3.65-11h-1.98l-3.56 11-2.62-11h-2.5zm-8.52 1.58c1.28 0 2.23.343 2.85 1.03.63.69.95 1.67.959 2.93h-8.18c.102-1.12.531-2.06 1.29-2.82.766-.758 1.79-1.14 3.08-1.14zm32.7 9.99v2.7h2.61v-2.7h-2.61z" fill="#050" style="white-space:pre"/>
  <path d="m0 8.39v6.77c0 .982.79 1.77 1.77 1.77h13.4c.982 0 1.77-.79 1.77-1.77v-6.77z" fill="#ccc"/>
  <path transform="scale(.265)" d="m39.5 40.4v11.8h1.43v-11.8h-1.43zm-37.8.508v11.3h1.5v-4.21h1.5c.809 0 1.48-.095 2.01-.287.531-.197.99-.491 1.38-.881.314-.314.557-.683.729-1.11.177-.43.266-.894.266-1.39-1e-6-.657-.118-1.2-.355-1.63-.233-.43-.564-.79-.994-1.08-.364-.243-.782-.42-1.25-.531-.47-.116-1.04-.174-1.72-.174h-3.06zm58.8 0 .213 8.18h1.29l.197-8.18h-1.7zm-57.3 1.29h1.49c.475 0 .867.0366 1.18.107.314.0657.591.175.834.332.278.182.485.419.621.707.137.288.205.626.205 1.02 2e-7.334-.0493.634-.15.902-.0961.268-.264.523-.502.766-.238.238-.547.412-.926.523-.379.106-.872.16-1.48.16h-1.27v-4.51zm10.7 1.3c-1.2 1e-6-2.15.403-2.86 1.21-.703.799-1.05 1.89-1.05 3.27 0 1.38.35 2.47 1.05 3.27.708.799 1.66 1.2 2.86 1.2 1.19 0 2.14-.398 2.84-1.2.708-.799 1.06-1.89 1.06-3.27 0-1.38-.355-2.47-1.06-3.27-.708-.804-1.66-1.21-2.84-1.21zm10.3 0c-.536 1e-6-1.04.109-1.52.326-.47.212-.894.478-1.27.797v-.887h-1.43v11.6h1.43v-3.55c.369.202.73.351 1.08.447.359.0961.759.145 1.2.145.506 1e-6.984-.1 1.43-.303.455-.207.85-.499 1.18-.873.359-.394.637-.875.834-1.44.197-.571.295-1.2.295-1.89 0-1.37-.284-2.44-.855-3.21-.566-.774-1.36-1.16-2.38-1.16zm22.5.0312c-.511 0-1.03.0457-1.55.137-.526.091-.929.174-1.21.25v1.45h.0762c.491-.187.966-.33 1.43-.426.46-.101.878-.152 1.25-.152.308 0 .604.022.887.0625.283.0405.526.118.729.234.212.121.375.288.486.5.116.212.174.481.174.805v.221c-.829.0405-1.6.101-2.33.182-.723.0809-1.34.235-1.86.463-.511.228-.905.54-1.18.939-.273.394-.408.912-.408 1.55 0 .784.264 1.43.795 1.94.531.506 1.18.758 1.94.758.415 0 .776-.0402 1.08-.121.308-.0758.583-.173.82-.289.202-.091.409-.212.621-.363.217-.157.389-.277.516-.363v.902h1.42v-5.75c0-.546-.0831-1-.25-1.37-.167-.369-.41-.67-.729-.902-.324-.238-.707-.406-1.15-.502-.44-.101-.958-.15-1.55-.15zm-17.1.205v5.5c0 1.05.249 1.85.744 2.4.496.541 1.19.811 2.08.811.531 0 1.02-.1 1.46-.303.44-.202.9-.494 1.38-.873v.941h1.43v-8.47h-1.43v6.33c-.379.298-.791.542-1.23.734-.435.192-.836.289-1.21.289-.415 0-.732-.0512-.949-.152-.217-.101-.393-.262-.529-.484-.131-.217-.217-.478-.258-.781-.0405-.308-.0625-.678-.0625-1.11v-4.82h-1.43zm23.5 0v8.47h1.43v-6.02c.379-.308.774-.56 1.18-.752.41-.197.835-.295 1.28-.295.273 0 .508.0118.705.0371.202.0202.409.0569.621.107h.0762v-1.46c-.223-.0354-.389-.0583-.5-.0684-.111-.0151-.291-.0215-.539-.0215-.45 0-.893.095-1.33.287-.43.187-.928.508-1.49.963v-1.25h-1.43zm-39.2.992c.764 0 1.36.269 1.79.805.43.531.645 1.35.645 2.44 0 1.07-.217 1.88-.652 2.43-.43.541-1.02.812-1.78.812-.769 0-1.37-.272-1.8-.818-.43-.551-.645-1.36-.645-2.42 0-1.1.212-1.91.637-2.44.43-.536 1.03-.805 1.81-.805zm9.97.129c.723 0 1.26.254 1.61.76.349.506.523 1.27.523 2.29 0 1.05-.223 1.84-.668 2.38s-1.06.805-1.86.805c-.369 0-.701-.0339-.994-.0996-.288-.0657-.635-.189-1.04-.371v-4.8c.379-.288.777-.522 1.19-.699.415-.177.827-.266 1.24-.266zm25.1 2.91v2.36c-.354.273-.738.508-1.15.705-.415.192-.872.287-1.37.287-.602 0-1.05-.121-1.34-.363-.293-.248-.439-.614-.439-1.1 0-.43.126-.767.379-1.01.253-.248.585-.429.994-.545.344-.0961.81-.17 1.4-.221.592-.0506 1.1-.088 1.54-.113zm11.7 2.84v1.6h1.55v-1.6h-1.55z" fill="#a00" style="white-space:pre"/>
 </g>
</svg>
